PathFileType	4	(X/Y/Z)	Patient4_TMGait_0pt8_01_left_07.trc.trc
DataRate	CameraRate	NumFrames	NumMarkers	Units	OrigDataRate	OrigDataStartFrame	OrigNumFrames
85.365853658537	85.365853658537	4	33	mm	85.365853658537	106	       141
Frame#	Time	Sacral			L.Shoulder			Chest			R.Shoulder			Neck			R.ASIS			L.ASIS			R.Thigh.Superior			R.Thigh.Lateral			R.Thigh.Inferior			R.Patella			L.Thigh.Superior			L.Thigh.Lateral			L.Thigh.Inferior			L.Patella			L.Shank.Superior			L.Shank.Lateral			L.Shank.Inferior			R.Shank.Superior			R.Shank.Lateral			R.Shank.Inferior			R.Heel			R.Midfoot.Superior			R.Midfoot.Lateral			R.Toe			L.Heel			L.Midfoot.Lateral			L.Midfoot.Superior			L.Toe			L.Elbow			L.Wrist			R.Elbow			R.Wrist			
		X1	Y1	Z1	X2	Y2	Z2	X3	Y3	Z3	X4	Y4	Z4	X5	Y5	Z5	X6	Y6	Z6	X7	Y7	Z7	X8	Y8	Z8	X9	Y9	Z9	X10	Y10	Z10	X11	Y11	Z11	X12	Y12	Z12	X13	Y13	Z13	X14	Y14	Z14	X15	Y15	Z15	X16	Y16	Z16	X17	Y17	Z17	X18	Y18	Z18	X19	Y19	Z19	X20	Y20	Z20	X21	Y21	Z21	X22	Y22	Z22	X23	Y23	Z23	X24	Y24	Z24	X25	Y25	Z25	X26	Y26	Z26	X27	Y27	Z27	X28	Y28	Z28	X29	Y29	Z29	X30	Y30	Z30	X31	Y31	Z31	X32	Y32	Z32	X33	Y33	Z33	

106	8.210000000000	861.004660207780	1010.507220128082	553.124042919065	1025.089590069822	1431.656213069462	347.921819458222	1143.412352287845	1363.904621768255	499.587175478581	1081.449283556517	1442.465695930245	680.574442550627	1033.473240445769	1497.603989536248	503.339666352595	1096.689534724018	946.150428203395	647.620830809223	1056.600901718863	966.937089024294	375.402318939916	1120.481658498462	740.795344822267	614.801497375294	1033.177526595543	634.731137361285	676.727163079251	1101.951606802652	579.181792580154	593.828936444101	1094.044864798623	492.020274983437	597.555229097082	1151.834360391848	800.483806023572	400.902145650471	1116.018463248624	670.070125286680	321.003194358317	1226.093403681929	616.351771473651	376.495906638767	1251.796500660455	537.320063435501	365.962209102214	1211.829088441539	460.759419588744	356.109119561992	1100.249075775653	364.362916886068	310.268458849540	1150.542155653996	239.607790528337	356.083350703039	1064.091400343564	404.641412594664	601.624584409376	989.848867897105	301.760754203238	660.683635649386	1027.517235035122	207.371606308902	593.166722225373	886.824438777516	45.964324697759	558.535348108885	1059.591552685463	97.070481002052	593.269058197094	970.711608183361	38.005604294002	631.794821734350	1178.904963035592	40.277546629524	619.152739574929	1013.722754251670	94.553071269230	399.142327021063	1077.836702738564	83.737769332094	312.183972759177	1169.804002511872	136.941469456667	328.927420334066	1285.570986530967	73.952388998435	286.806108550526	984.007747096625	1072.844166394264	255.105654014280	1043.422554748313	819.036808040209	252.824489677097	1110.825520762658	1098.998465286147	810.097938026401	1339.594444300257	989.631428454412	769.788323930954	
107	8.221714285714	859.523267105670	1010.834323422494	553.278441117905	1024.262260590837	1431.411786395663	348.046396768960	1142.811380581803	1363.369457531818	499.358765133766	1081.676329398696	1442.259815434707	680.510313235416	1033.190711943681	1497.380764540576	503.440887132444	1095.014455119111	945.990382756738	647.866594731112	1054.976142405900	966.425290186271	375.466690081687	1116.196952220543	739.961853282143	615.466688062422	1027.201484056957	634.759373335544	677.164856797333	1095.271302882444	578.299439836950	594.582458799851	1086.168132304561	491.611222356457	598.117587695305	1149.195201151569	800.154861454239	401.052138266308	1113.812723646334	669.850118792637	320.529607431668	1223.511163852510	616.360850209547	376.721258303885	1250.655414825103	539.812793775788	366.214640149056	1215.243705134286	463.221601486008	355.807659760136	1111.549982976023	359.569008855924	308.273735564951	1170.124176150501	238.309323516533	354.356829734458	1055.873681785310	404.477600298098	602.098490731342	981.108298409908	301.820941476354	661.116236250351	1018.553504429340	207.350976876342	593.518751105907	877.347671136485	46.073549242684	558.612950210894	1050.248934241465	97.079151051098	593.448757814607	961.261028578688	37.972261415349	631.831953960896	1169.450476256266	40.183942147066	619.250978400076	1043.859689592675	83.802887566698	395.648515000562	1109.535780351471	77.675735134942	309.430259204727	1197.371455737212	136.980765568738	327.161716602092	1317.574483918574	82.106011116513	286.416752932829	975.107090183535	1073.462804084007	256.036774698473	1020.462730511955	817.023120677043	254.364288932049	1121.602025719867	1100.242700037482	809.030057381206	1357.283269999692	1010.113277356809	764.658299974770	
108	8.233428571429	858.150734385388	1011.051455916711	553.217382818886	1023.604180507396	1431.123005837120	348.049955498785	1142.256607249198	1362.727089073416	499.078355571608	1081.803595150874	1441.918624340442	680.342104827055	1032.916030517330	1497.050119246473	503.457837411474	1093.400007093431	945.763930130771	648.093927360647	1053.629115570580	965.716002881916	375.451189387892	1111.880294912937	739.018290646329	616.166066778697	1021.037279388438	634.770880337722	677.543925696985	1088.339945898177	577.375599025885	595.284997695845	1078.042553132262	491.187250999032	598.607221591456	1146.317167169940	799.113473485445	401.188290217804	1111.145232321479	669.134365616338	319.823747470899	1220.335332453197	615.609676022749	376.918642084464	1248.795622567326	541.693456213729	366.554184009185	1217.899241761580	465.428591585399	355.622528028109	1122.603219545400	355.153785539407	306.161055930217	1188.902923691263	237.943329589932	352.857022983428	1047.409672655392	404.337517800291	602.519568382285	972.192580131147	301.863252065333	661.500448168511	1009.470802519116	207.340417546828	593.827688240692	867.853956798377	46.123927109087	558.684452521478	1040.879131429148	97.085053905243	593.605287488366	951.787179490967	37.919168264043	631.854784610473	1159.987454026463	40.135620253887	619.339818902836	1073.441209337445	74.953534677633	392.154400216087	1140.749523368384	73.282164388035	306.959450283761	1224.106257767784	138.295235853514	325.836691671053	1348.268205657788	91.488181417382	287.109584916489	965.946669749878	1074.436600521002	256.593047200751	998.289983282202	816.291838498539	256.067241599816	1132.392300794340	1101.727316443289	807.554741400897	1373.332160906773	1031.130028980663	759.351632604843	
109	8.245142857143	856.905731336047	1011.136818671283	552.955543825813	1023.087827632934	1430.773944234965	347.929587146787	1141.737096062843	1361.977444394601	498.738291424011	1081.822898861920	1441.434985788940	680.064014699557	1032.634201376357	1496.600067477088	503.389213381507	1091.867381755380	945.443698237145	648.278340951141	1052.546327096560	964.812602367232	375.352446958320	1107.552831742080	737.952403784725	616.838956061380	1014.747411274212	634.758264010527	677.855029499263	1081.192997236047	576.414957109272	595.895727867722	1069.721041463752	490.730706309686	599.001369299657	1143.299883057618	797.450710984660	401.318133266533	1108.169922518564	667.988939239597	318.890204544675	1216.758480181702	614.212269587732	377.057340875398	1246.392341931083	543.005320194605	366.957794816277	1219.886815444072	467.370584774821	355.522160192025	1133.233040494557	351.191663474488	304.045566803990	1206.617509073317	238.442623131521	351.615710489054	1038.736603037411	404.206912179993	602.872856400641	963.138045992643	301.884906946062	661.833765541225	1000.282264230876	207.330777616891	594.087268084162	858.344284742174	46.110416363636	558.751915821307	1031.476732323806	97.084724544012	593.736278488995	942.290791383830	37.845840845037	631.866252161698	1150.516939781576	40.128741664619	619.415400579349	1101.933106266272	68.033962608355	388.852122834112	1170.904620846483	70.476142961766	304.897844664781	1249.585950068620	140.722899893591	324.970522744227	1377.196666964469	101.745035458489	288.788119506579	956.594619739597	1075.758964615282	256.817158384106	977.020228428005	816.654062024146	257.909127960562	1143.149525951943	1103.458261957979	805.698117649171	1387.692175176601	1052.429086813812	753.947800872087	
